<svg width="155" height="34" viewBox="0 0 155 34" fill="none" xmlns="http://www.w3.org/2000/svg">
<path d="M15 30.5C22.4558 30.5 28.5 24.4558 28.5 17C28.5 9.54416 22.4558 3.5 15 3.5C7.54416 3.5 1.5 9.54416 1.5 17C1.5 24.4558 7.54416 30.5 15 30.5Z" fill="#FFCB46" stroke="black" stroke-width="3"/>
<path d="M47.7557 13.7784C47.6989 13.1534 47.446 12.6676 46.9972 12.321C46.554 11.9688 45.9205 11.7926 45.0966 11.7926C44.5511 11.7926 44.0966 11.8636 43.733 12.0057C43.3693 12.1477 43.0966 12.3438 42.9148 12.5938C42.733 12.8381 42.6392 13.1193 42.6335 13.4375C42.6222 13.6989 42.6733 13.929 42.7869 14.1278C42.9063 14.3267 43.0767 14.5028 43.2983 14.6562C43.5256 14.804 43.7983 14.9347 44.1165 15.0483C44.4347 15.1619 44.7926 15.2614 45.1903 15.3466L46.6903 15.6875C47.554 15.875 48.3153 16.125 48.9744 16.4375C49.6392 16.75 50.196 17.1222 50.6449 17.554C51.0994 17.9858 51.4432 18.483 51.6761 19.0455C51.9091 19.608 52.0284 20.2386 52.0341 20.9375C52.0284 22.0398 51.75 22.9858 51.1989 23.7756C50.6477 24.5653 49.8551 25.1705 48.821 25.5909C47.7926 26.0114 46.5511 26.2216 45.0966 26.2216C43.6364 26.2216 42.3636 26.0028 41.2784 25.5653C40.1932 25.1278 39.3494 24.4631 38.7472 23.571C38.1449 22.679 37.8352 21.5511 37.8182 20.1875H41.858C41.892 20.75 42.0426 21.2188 42.3097 21.5938C42.5767 21.9688 42.9432 22.2528 43.4091 22.446C43.8807 22.6392 44.4261 22.7358 45.0455 22.7358C45.6136 22.7358 46.0966 22.6591 46.4943 22.5057C46.8977 22.3523 47.2074 22.1392 47.4233 21.8665C47.6392 21.5937 47.75 21.2812 47.7557 20.929C47.75 20.5994 47.6477 20.3182 47.4489 20.0852C47.25 19.8466 46.9432 19.642 46.5284 19.4716C46.1193 19.2955 45.5966 19.1335 44.9602 18.9858L43.1364 18.5597C41.625 18.2131 40.4347 17.6534 39.5653 16.8807C38.696 16.1023 38.2642 15.0511 38.2699 13.7273C38.2642 12.6477 38.554 11.7017 39.1392 10.8892C39.7244 10.0767 40.5341 9.44318 41.5682 8.98864C42.6023 8.53409 43.7813 8.30682 45.1051 8.30682C46.4574 8.30682 47.6307 8.53693 48.625 8.99716C49.625 9.4517 50.4006 10.0909 50.9517 10.9148C51.5028 11.7386 51.7841 12.6932 51.7955 13.7784H47.7557ZM58.3324 18.5341V26H54.1648V8.54545H58.196V15.3125H58.3409C58.6364 14.5057 59.1193 13.875 59.7898 13.4205C60.4659 12.9659 61.2926 12.7386 62.2699 12.7386C63.1903 12.7386 63.9915 12.9432 64.6733 13.3523C65.3551 13.7557 65.8835 14.3267 66.2585 15.0653C66.6392 15.804 66.8267 16.6676 66.821 17.6562V26H62.6534V18.4744C62.6591 17.7472 62.4773 17.179 62.108 16.7699C61.7386 16.3608 61.2188 16.1562 60.5483 16.1562C60.1108 16.1562 59.7244 16.2528 59.3892 16.446C59.0597 16.6335 58.8011 16.9034 58.6136 17.2557C58.4318 17.608 58.3381 18.0341 58.3324 18.5341ZM77.8686 20.3494V12.9091H82.0277V26H78.0561V23.5625H77.9197C77.63 24.3636 77.1357 25 76.4368 25.4716C75.7436 25.9375 74.9055 26.1705 73.9226 26.1705C73.0305 26.1705 72.2464 25.9659 71.5703 25.5568C70.8942 25.1477 70.3686 24.5767 69.9936 23.8438C69.6186 23.1051 69.4283 22.2415 69.4226 21.2528V12.9091H73.5902V20.4347C73.5959 21.1449 73.7834 21.7045 74.1527 22.1136C74.522 22.5227 75.0249 22.7273 75.6612 22.7273C76.076 22.7273 76.4482 22.6364 76.7777 22.4545C77.1129 22.267 77.3771 21.9972 77.5703 21.6449C77.7692 21.2869 77.8686 20.8551 77.8686 20.3494ZM88.3707 26.2216C87.5355 26.2216 86.794 26.0824 86.1463 25.804C85.5043 25.5199 84.9957 25.0937 84.6207 24.5256C84.2514 23.9517 84.0668 23.233 84.0668 22.3693C84.0668 21.642 84.1946 21.0284 84.4503 20.5284C84.706 20.0284 85.0582 19.6222 85.5071 19.3097C85.956 18.9972 86.473 18.7614 87.0582 18.6023C87.6435 18.4375 88.2685 18.3267 88.9332 18.2699C89.6776 18.2017 90.277 18.1307 90.7315 18.0568C91.1861 17.9773 91.5156 17.8665 91.7202 17.7244C91.9304 17.5767 92.0355 17.3693 92.0355 17.1023V17.0597C92.0355 16.6222 91.8849 16.2841 91.5838 16.0455C91.2827 15.8068 90.8764 15.6875 90.3651 15.6875C89.8139 15.6875 89.3707 15.8068 89.0355 16.0455C88.7003 16.2841 88.4872 16.6136 88.3963 17.0341L84.5526 16.8977C84.6662 16.1023 84.9588 15.392 85.4304 14.767C85.9077 14.1364 86.5611 13.642 87.3906 13.2841C88.2259 12.9205 89.2287 12.7386 90.3991 12.7386C91.2344 12.7386 92.0043 12.8381 92.7088 13.0369C93.4134 13.2301 94.027 13.5142 94.5497 13.8892C95.0724 14.2585 95.4759 14.7131 95.7599 15.2528C96.0497 15.7926 96.1946 16.4091 96.1946 17.1023V26H92.2741V24.1761H92.1719C91.9389 24.6193 91.6406 24.9943 91.277 25.3011C90.919 25.608 90.4957 25.8381 90.0071 25.9915C89.5241 26.1449 88.9787 26.2216 88.3707 26.2216ZM89.6577 23.4943C90.1065 23.4943 90.5099 23.4034 90.8679 23.2216C91.2315 23.0398 91.5213 22.7898 91.7372 22.4716C91.9531 22.1477 92.0611 21.7727 92.0611 21.3466V20.1023C91.9418 20.1648 91.7969 20.2216 91.6264 20.2727C91.4616 20.3239 91.2798 20.3722 91.081 20.4176C90.8821 20.4631 90.6776 20.5028 90.4673 20.5369C90.2571 20.571 90.0554 20.6023 89.8622 20.6307C89.4702 20.6932 89.1349 20.7898 88.8565 20.9205C88.5838 21.0511 88.3736 21.2216 88.2259 21.4318C88.0838 21.6364 88.0128 21.8807 88.0128 22.1648C88.0128 22.5966 88.1662 22.9261 88.473 23.1534C88.7855 23.3807 89.1804 23.4943 89.6577 23.4943ZM98.7429 26V12.9091H102.911V26H98.7429ZM100.831 11.3835C100.246 11.3835 99.7429 11.1903 99.3224 10.804C98.902 10.4119 98.6918 9.94034 98.6918 9.3892C98.6918 8.84375 98.902 8.37784 99.3224 7.99148C99.7429 7.59943 100.246 7.40341 100.831 7.40341C101.422 7.40341 101.925 7.59943 102.339 7.99148C102.76 8.37784 102.97 8.84375 102.97 9.3892C102.97 9.94034 102.76 10.4119 102.339 10.804C101.925 11.1903 101.422 11.3835 100.831 11.3835ZM113.941 17.3324V20.5455H105.862V17.3324H113.941ZM116.884 12.9091H121.051V26.5455C121.051 27.625 120.83 28.483 120.386 29.1193C119.949 29.7557 119.33 30.2131 118.528 30.4915C117.727 30.7699 116.781 30.9091 115.69 30.9091C115.543 30.9091 115.403 30.9063 115.273 30.9006C115.142 30.8949 115 30.8892 114.847 30.8835V27.7216C114.949 27.733 115.04 27.7415 115.119 27.7472C115.199 27.7528 115.278 27.7557 115.358 27.7557C115.932 27.7557 116.33 27.6477 116.551 27.4318C116.773 27.2216 116.884 26.8977 116.884 26.4602V12.9091ZM118.963 11.3835C118.378 11.3835 117.875 11.1903 117.455 10.804C117.034 10.4119 116.824 9.94034 116.824 9.3892C116.824 8.84375 117.034 8.37784 117.455 7.99148C117.875 7.59943 118.378 7.40341 118.963 7.40341C119.554 7.40341 120.057 7.59943 120.472 7.99148C120.892 8.37784 121.102 8.84375 121.102 9.3892C121.102 9.94034 120.892 10.4119 120.472 10.804C120.057 11.1903 119.554 11.3835 118.963 11.3835ZM123.704 26V12.9091H127.871V26H123.704ZM125.792 11.3835C125.207 11.3835 124.704 11.1903 124.283 10.804C123.863 10.4119 123.653 9.94034 123.653 9.3892C123.653 8.84375 123.863 8.37784 124.283 7.99148C124.704 7.59943 125.207 7.40341 125.792 7.40341C126.383 7.40341 126.886 7.59943 127.3 7.99148C127.721 8.37784 127.931 8.84375 127.931 9.3892C127.931 9.94034 127.721 10.4119 127.3 10.804C126.886 11.1903 126.383 11.3835 125.792 11.3835ZM136.643 26.2472C135.274 26.2472 134.092 25.9773 133.098 25.4375C132.109 24.892 131.348 24.1165 130.814 23.1108C130.286 22.0994 130.021 20.8977 130.021 19.5057C130.021 18.1534 130.288 16.9716 130.822 15.9602C131.357 14.9432 132.109 14.1534 133.081 13.5909C134.053 13.0227 135.197 12.7386 136.516 12.7386C137.447 12.7386 138.3 12.8835 139.072 13.1733C139.845 13.4631 140.513 13.892 141.075 14.4602C141.638 15.0284 142.075 15.7301 142.388 16.5653C142.7 17.3949 142.857 18.3466 142.857 19.4205V20.4602H131.479V18.0398H138.979C138.973 17.5966 138.868 17.2017 138.663 16.8551C138.459 16.5085 138.178 16.2386 137.82 16.0455C137.467 15.8466 137.061 15.7472 136.601 15.7472C136.135 15.7472 135.717 15.8523 135.348 16.0625C134.979 16.267 134.686 16.5483 134.47 16.9062C134.254 17.2585 134.141 17.6591 134.129 18.108V20.571C134.129 21.1051 134.234 21.5739 134.445 21.9773C134.655 22.375 134.953 22.6847 135.339 22.9062C135.726 23.1278 136.186 23.2386 136.72 23.2386C137.089 23.2386 137.425 23.1875 137.726 23.0852C138.027 22.983 138.286 22.8324 138.501 22.6335C138.717 22.4347 138.879 22.1903 138.987 21.9006L142.814 22.0114C142.655 22.8693 142.305 23.6165 141.766 24.2528C141.232 24.8835 140.53 25.375 139.661 25.7273C138.791 26.0739 137.786 26.2472 136.643 26.2472ZM147.329 26.2472C146.715 26.2472 146.19 26.0312 145.752 25.5994C145.32 25.1676 145.107 24.6449 145.113 24.0312C145.107 23.429 145.32 22.9148 145.752 22.4886C146.19 22.0568 146.715 21.8409 147.329 21.8409C147.908 21.8409 148.42 22.0568 148.863 22.4886C149.312 22.9148 149.539 23.429 149.545 24.0312C149.539 24.4403 149.431 24.8125 149.221 25.1477C149.016 25.483 148.746 25.75 148.411 25.9489C148.082 26.1477 147.721 26.2472 147.329 26.2472Z" fill="black"/>
</svg>
